<svg xmlns="http://www.w3.org/2000/svg" xmlns:xlink="http://www.w3.org/1999/xlink" viewBox="0 0 512 261.74"><defs><style>.cls-1{isolation:isolate;}.cls-2{fill:url(#linear-gradient);}.cls-3{fill:url(#linear-gradient-2);}.cls-4,.cls-6{mix-blend-mode:multiply;}.cls-5,.cls-6{fill:#eb0000;}.cls-11,.cls-13,.cls-7,.cls-9{mix-blend-mode:screen;}.cls-7{fill:url(#linear-gradient-3);}.cls-8{fill:url(#linear-gradient-4);}.cls-9{fill:url(#linear-gradient-5);}.cls-10{fill:url(#linear-gradient-6);}.cls-11{fill:url(#linear-gradient-7);}.cls-12{fill:url(#linear-gradient-8);}.cls-13{fill:url(#linear-gradient-9);}.cls-14{fill:url(#linear-gradient-10);}.cls-15{fill:url(#linear-gradient-11);}.cls-16{fill:url(#linear-gradient-12);}.cls-17{fill:url(#linear-gradient-13);}.cls-18{fill:url(#linear-gradient-14);}.cls-19{fill:url(#linear-gradient-15);}.cls-20{fill:url(#linear-gradient-16);}.cls-21{fill:url(#linear-gradient-17);}.cls-22{fill:url(#linear-gradient-18);}.cls-23{fill:url(#linear-gradient-19);}.cls-24{fill:url(#linear-gradient-20);}</style><linearGradient id="linear-gradient" x1="445.71" y1="144.4" x2="445.71" y2="84.74" gradientUnits="userSpaceOnUse"><stop offset="0" stop-color="#833602"/><stop offset="0.29" stop-color="#9b5019"/><stop offset="0.9" stop-color="#d99353"/><stop offset="1" stop-color="#e39e5d"/></linearGradient><linearGradient id="linear-gradient-2" x1="-296.98" y1="500.83" x2="-418.52" y2="420.13" gradientTransform="translate(316.39 -427.89) rotate(-16.32)" gradientUnits="userSpaceOnUse"><stop offset="0" stop-color="#663500"/><stop offset="0.08" stop-color="#764710"/><stop offset="0.24" stop-color="#9e7538"/><stop offset="0.41" stop-color="#d0ad6a"/><stop offset="0.5" stop-color="#d8b97c"/><stop offset="0.72" stop-color="#ead3a2"/></linearGradient><linearGradient id="linear-gradient-3" x1="-1490.71" y1="761.49" x2="-1395.14" y2="800.97" gradientTransform="matrix(0.73, -0.68, 0.68, 0.73, 612.51, -1447.27)" gradientUnits="userSpaceOnUse"><stop offset="0"/><stop offset="0.29" stop-color="#020201"/><stop offset="0.42" stop-color="#0a0804"/><stop offset="0.53" stop-color="#17120a"/><stop offset="0.62" stop-color="#292012"/><stop offset="0.7" stop-color="#41331c"/><stop offset="0.77" stop-color="#5f4a29"/><stop offset="0.84" stop-color="#826638"/><stop offset="0.9" stop-color="#ab8649"/><stop offset="0.96" stop-color="#d8a95c"/><stop offset="1" stop-color="#ffc76d"/></linearGradient><linearGradient id="linear-gradient-4" x1="227.59" y1="181.36" x2="119.67" y2="48.49" gradientTransform="matrix(1, -0.06, 0.06, 1, -35.01, -18.35)" xlink:href="#linear-gradient-2"/><linearGradient id="linear-gradient-5" x1="-165.58" y1="333.03" x2="-70.01" y2="372.51" gradientTransform="matrix(0.98, -0.21, 0.21, 0.98, 182.61, -291.8)" xlink:href="#linear-gradient-3"/><linearGradient id="linear-gradient-6" x1="246.61" y1="185.44" x2="206.1" y2="40.25" gradientTransform="matrix(1, -0.06, 0.06, 1, -35.01, -18.35)" xlink:href="#linear-gradient-2"/><linearGradient id="linear-gradient-7" x1="366.33" y1="-135.98" x2="461.9" y2="-96.5" gradientTransform="translate(-225.35 163.66) rotate(3.28)" xlink:href="#linear-gradient-3"/><linearGradient id="linear-gradient-8" x1="499.65" y1="34.94" x2="484.75" y2="-125.49" gradientTransform="translate(-245.84 134.57) rotate(3.32)" xlink:href="#linear-gradient-2"/><linearGradient id="linear-gradient-9" x1="849.76" y1="-825.54" x2="945.33" y2="-786.06" gradientTransform="matrix(0.93, 0.38, -0.38, 0.93, -886.71, 505.64)" xlink:href="#linear-gradient-3"/><linearGradient id="linear-gradient-10" x1="233.19" y1="252.9" x2="464.87" y2="252.9" gradientUnits="userSpaceOnUse"><stop offset="0" stop-color="#833602"/><stop offset="1" stop-color="#e39e5d"/></linearGradient><linearGradient id="linear-gradient-11" x1="234.38" y1="256.2" x2="463.83" y2="256.2" xlink:href="#linear-gradient-10"/><linearGradient id="linear-gradient-12" x1="53.92" y1="189.85" x2="494.64" y2="189.85" gradientUnits="userSpaceOnUse"><stop offset="0" stop-color="#e39e5d"/><stop offset="0.05" stop-color="#dd9757"/><stop offset="0.49" stop-color="#ac6329"/><stop offset="0.82" stop-color="#8e420d"/><stop offset="1" stop-color="#833602"/></linearGradient><linearGradient id="linear-gradient-13" x1="67.51" y1="190.16" x2="160.83" y2="190.16" gradientUnits="userSpaceOnUse"><stop offset="0"/><stop offset="0.38" stop-color="#020202"/><stop offset="0.56" stop-color="#0a0a0a"/><stop offset="0.7" stop-color="#171717"/><stop offset="0.82" stop-color="#292929"/><stop offset="0.93" stop-color="#414141"/><stop offset="1" stop-color="#575757"/></linearGradient><linearGradient id="linear-gradient-14" x1="154.37" y1="190.16" x2="260.49" y2="190.16" xlink:href="#linear-gradient-13"/><linearGradient id="linear-gradient-15" x1="240.12" y1="189.85" x2="340.39" y2="189.85" xlink:href="#linear-gradient-13"/><linearGradient id="linear-gradient-16" x1="342.47" y1="190.16" x2="435.79" y2="190.16" xlink:href="#linear-gradient-13"/><linearGradient id="linear-gradient-17" x1="429.57" y1="190.16" x2="481.04" y2="190.16" xlink:href="#linear-gradient-13"/><linearGradient id="linear-gradient-18" x1="350.61" y1="79.39" x2="495.01" y2="147.45" xlink:href="#linear-gradient-13"/><linearGradient id="linear-gradient-19" x1="355.15" y1="69.74" x2="499.56" y2="137.8" xlink:href="#linear-gradient-13"/><linearGradient id="linear-gradient-20" x1="358.11" y1="63.47" x2="502.51" y2="131.53" xlink:href="#linear-gradient-13"/></defs><g class="cls-1"><g id="Layer_1" data-name="Layer 1"><path class="cls-2" d="M484.7,111.53l7-26.06H440.75l-.38,1.41a38.87,38.87,0,0,0-12.87-2.14c-15.55,0-27.28,10.16-27.28,23.63a20.9,20.9,0,0,0,.93,6.35L390.06,128l7.74,7a37.44,37.44,0,0,0,25.27,9.43,35.46,35.46,0,0,0,7.26-.73h62.35l8.67-32.14Z"/><path class="cls-3" d="M178,127.79c2.59,2.79,2.93,6.68.76,8.68l-65.49,60.59c-2.16,2-6,1.36-8.6-1.43L13.57,97.16c-2.58-2.79-2.92-6.68-.76-8.68L78.3,27.89c2.17-2,6-1.36,8.6,1.43Z"/><g class="cls-4"><path class="cls-5" d="M26.19,94.85l-2.62,2.42.53,1.49a2.32,2.32,0,0,0,.37.75.49.49,0,0,0,.4.14,1.86,1.86,0,0,0,.78-.44l.17.18-2.13,2-.17-.19a1.47,1.47,0,0,0,.36-.7,4.09,4.09,0,0,0-.33-1.5l-2.77-7.76.17-.17,7.56,3.45a3.65,3.65,0,0,0,1.33.41,1.46,1.46,0,0,0,.86-.38l.17.19L28.2,97.19,28,97a1.27,1.27,0,0,0,.42-.64.46.46,0,0,0-.11-.41,3.22,3.22,0,0,0-.85-.51Zm-.49-.24L22,92.94l1.35,3.82Z"/></g><polygon class="cls-6" points="29.07 106.51 28.59 99.99 35.05 100.97 35.53 107.5 29.07 106.51"/><polygon class="cls-6" points="82.7 124.58 80.6 96.06 108.87 100.37 110.97 128.89 82.7 124.58"/><path class="cls-7" d="M97,40.19,86.9,29.32c-2.58-2.79-6.43-3.43-8.6-1.43L12.81,88.48c-2.16,2-1.82,5.89.76,8.68l79.51,86Z"/><path class="cls-8" d="M210.24,144.64c.79,3.73-.91,7.24-3.8,7.85L119.17,171c-2.89.61-5.87-1.91-6.66-5.64L84.7,34.13c-.79-3.73.91-7.24,3.8-7.85L175.77,7.79c2.89-.62,5.87,1.9,6.66,5.63Z"/><path d="M96.68,39.34l-3.49.74-.31,1.55a2.14,2.14,0,0,0-.06.83.49.49,0,0,0,.27.33,1.85,1.85,0,0,0,.89,0l0,.24-2.84.61,0-.25a1.58,1.58,0,0,0,.68-.41,4.27,4.27,0,0,0,.48-1.46l1.59-8.09.24-.05,4.72,6.83a3.47,3.47,0,0,0,.94,1,1.39,1.39,0,0,0,.93.12l0,.25-3.56.75,0-.24a1.45,1.45,0,0,0,.69-.34.48.48,0,0,0,.11-.41,2.83,2.83,0,0,0-.46-.87Zm-.29-.45-2.3-3.32-.8,4Z"/><path d="M99.86,48.49a2.58,2.58,0,0,0-1.4.85A2.91,2.91,0,0,0,99,47a2.42,2.42,0,1,0-4.74,1,3.05,3.05,0,0,0,1.45,1.94,2.74,2.74,0,0,0-1.61-.22,2.43,2.43,0,0,0-1.87,2.88h0a1.76,1.76,0,0,0,.15.44A2.42,2.42,0,0,0,97,51.58a1.46,1.46,0,0,0,0-.2,2.34,2.34,0,0,0,.4.12c.12,1,.39,3.63,0,4.33l2.12-.45c-.67-.47-1.49-3-1.78-4a2.17,2.17,0,0,0,.32-.27l0,.21a2.43,2.43,0,0,0,4.8-.52,2.5,2.5,0,0,0-.05-.47h0A2.41,2.41,0,0,0,99.86,48.49Z"/><path d="M158.44,81.61c-4.4.93-5.58,3.73-5.87,3.54s3.64-3.6,2.31-9.88A10.18,10.18,0,0,0,135,79.49c1.32,6.22,6.28,7.84,6.09,8.14s-2.52-1.81-6.77-.91a10.19,10.19,0,0,0-7.85,12.07s0,0,0,0v0a9.74,9.74,0,0,0,.61,1.87,10.17,10.17,0,0,0,19.28-6.17c-.06-.28-.14-.56-.22-.83a9.27,9.27,0,0,0,1.69.48c.52,4.26,1.64,15.23-.13,18.17l8.91-1.89c-2.81-2-6.24-12.47-7.49-16.57a8.93,8.93,0,0,0,1.35-1.14,6.71,6.71,0,0,0,.14.88,10.17,10.17,0,0,0,19.92-4.14v-.08A10.16,10.16,0,0,0,158.44,81.61Z"/><path class="cls-9" d="M185.5,27.9l-3.07-14.48c-.79-3.73-3.77-6.25-6.65-5.63L88.5,26.28c-2.88.61-4.59,4.12-3.8,7.85L109,148.67Z"/><path d="M170.91,141.46l3.49-.74.32-1.56a2.64,2.64,0,0,0,.06-.83.49.49,0,0,0-.28-.32,1.73,1.73,0,0,0-.89,0l-.05-.25,2.84-.6,0,.25a1.55,1.55,0,0,0-.68.41,4.09,4.09,0,0,0-.47,1.46l-1.6,8.09-.23.05-4.73-6.84a3.47,3.47,0,0,0-.94-1,1.5,1.5,0,0,0-.92-.12l-.06-.24,3.56-.76.05.25a1.46,1.46,0,0,0-.69.33.5.5,0,0,0-.11.42,2.93,2.93,0,0,0,.46.86Zm.29.45,2.31,3.32.79-4Z"/><path d="M175.35,128.19a2.15,2.15,0,0,0-.14-.45,2.43,2.43,0,0,0-4.6,1.47,1.94,1.94,0,0,1,0,.2,1.56,1.56,0,0,0-.4-.11c-.12-1-.39-3.63,0-4.33l-2.12.45c.67.47,1.49,3,1.79,4a2.16,2.16,0,0,0-.33.27.76.76,0,0,0,0-.21,2.43,2.43,0,0,0-4.8.52,3.59,3.59,0,0,0,0,.46h0a2.42,2.42,0,0,0,2.87,1.87,2.68,2.68,0,0,0,1.4-.84,2.94,2.94,0,0,0-.55,2.35,2.42,2.42,0,1,0,4.74-1,3,3,0,0,0-1.44-1.94,2.74,2.74,0,0,0,1.61.21,2.42,2.42,0,0,0,1.87-2.87h0Z"/><path class="cls-10" d="M244.42,154.18c-.22,3.8-2.78,6.74-5.73,6.57l-89.06-5.09c-2.95-.17-5.16-3.39-4.94-7.19l7.65-133.92c.22-3.8,2.79-6.74,5.73-6.57l89.07,5.09c2.94.17,5.16,3.39,4.94,7.19Z"/><path class="cls-6" d="M160,29.74A2.13,2.13,0,0,0,157.76,28a2.38,2.38,0,0,0-2.44,2.41c-.08,1.43,1,2.56,2.15,3.73a26.53,26.53,0,0,1,2.14,2.34h0A28,28,0,0,1,162,34.43c1.33-1,2.48-2,2.57-3.47a2.37,2.37,0,0,0-2.16-2.66A2.11,2.11,0,0,0,160,29.74Z"/><g class="cls-4"><path class="cls-5" d="M162.19,21.6l-3.56-.21-.71,1.42a2.34,2.34,0,0,0-.27.79.46.46,0,0,0,.18.38,1.69,1.69,0,0,0,.85.25v.25l-2.9-.16v-.25a1.63,1.63,0,0,0,.76-.22,4.25,4.25,0,0,0,.85-1.28l3.67-7.39h.23L164.06,23a3.52,3.52,0,0,0,.63,1.24,1.51,1.51,0,0,0,.86.36v.25l-3.63-.21v-.25a1.49,1.49,0,0,0,.76-.14.49.49,0,0,0,.21-.37,2.78,2.78,0,0,0-.22-1Zm-.16-.52-1.35-3.81-1.81,3.63Z"/></g><path class="cls-6" d="M236.77,139A2.12,2.12,0,0,0,239,140.7a2.39,2.39,0,0,0,2.45-2.41c.08-1.43-1-2.56-2.16-3.73a25.53,25.53,0,0,1-2.13-2.34h0a28.82,28.82,0,0,1-2.4,2.08c-1.32,1-2.48,2-2.56,3.47a2.38,2.38,0,0,0,2.15,2.66A2.12,2.12,0,0,0,236.77,139Z"/><g class="cls-4"><path class="cls-5" d="M234.57,147.13l3.56.21.71-1.42a2.2,2.2,0,0,0,.28-.79.46.46,0,0,0-.18-.38,1.73,1.73,0,0,0-.85-.25v-.25l2.9.16,0,.25a1.63,1.63,0,0,0-.76.22,4.33,4.33,0,0,0-.84,1.28l-3.67,7.39h-.24l-2.76-7.84a3.67,3.67,0,0,0-.64-1.24,1.48,1.48,0,0,0-.86-.36l0-.25,3.63.21,0,.25a1.42,1.42,0,0,0-.75.14.47.47,0,0,0-.22.37,2.78,2.78,0,0,0,.22,1Zm.16.52,1.35,3.8,1.81-3.62Z"/></g><path class="cls-6" d="M199.08,72.19c-.33-4.75-5.24-7.88-10.48-8-5.67-.15-11,3.83-11.45,11.26-.38,6.72,4.47,12,10.08,17.53a120.29,120.29,0,0,1,10,10.94h0a123.61,123.61,0,0,1,11.22-9.73c6.2-4.85,11.63-9.54,12-16.26.43-7.43-4.43-12-10.09-12.5C205.18,65,199.94,67.51,199.08,72.19Z"/><path class="cls-11" d="M251.23,35l.85-14.78c.22-3.8-2-7-4.94-7.19L158.07,8c-2.94-.17-5.51,2.77-5.73,6.57l-6.68,116.9Z"/><path class="cls-12" d="M268.86,193.3c-1.44,3.53-4.82,5.48-7.55,4.36L178.71,164c-2.73-1.11-3.78-4.88-2.34-8.4L227.06,31.36c1.44-3.52,4.82-5.48,7.55-4.36l82.6,33.71c2.73,1.12,3.78,4.88,2.34,8.4Z"/><path d="M261.26,105.11C256.77,95.53,256.68,91,256.68,91h0s-3.25,3.18-13.16,6.89c-7.94,3-14.33,5.4-16.82,11.49a10.41,10.41,0,0,0,5.7,13.57c3.73,1.52,7.85,1.37,10.67-.75-2.09,3.6-5.35,8.95-8.39,9.63l9.16,3.74c-1.7-2.62-.29-8.72.74-12.75.53,3.48,3.37,6.48,7.09,8a10.42,10.42,0,0,0,13.57-5.71C267.71,119,264.85,112.8,261.26,105.11Z"/><path d="M232.18,50.26a8.26,8.26,0,0,1-1-2.9h0a8.39,8.39,0,0,1-2.7,1.42c-1.63.61-2.95,1.11-3.46,2.36a2.15,2.15,0,0,0,1.17,2.79,2.27,2.27,0,0,0,2.2-.17c-.43.74-1.1,1.85-1.73,2l1.88.77c-.35-.54-.05-1.8.16-2.63a2.24,2.24,0,0,0,1.45,1.65A2.14,2.14,0,0,0,233,54.37C233.5,53.12,232.92,51.84,232.18,50.26Z"/><path d="M235.18,42.26l-3.31-1.34L230.75,42a2.35,2.35,0,0,0-.52.65.49.49,0,0,0,0,.42,1.85,1.85,0,0,0,.73.52l-.1.23-2.68-1.09.09-.24a1.46,1.46,0,0,0,.79,0,4.19,4.19,0,0,0,1.22-.94l5.86-5.79.22.09.08,8.31a3.29,3.29,0,0,0,.2,1.37,1.37,1.37,0,0,0,.69.62l-.09.23-3.37-1.37.1-.23a1.35,1.35,0,0,0,.76.11.5.5,0,0,0,.32-.28,2.89,2.89,0,0,0,.1-1Zm0-.53,0-4-2.89,2.84Z"/><path d="M260.74,182.4l3.3,1.35,1.13-1.11a2.51,2.51,0,0,0,.52-.66.46.46,0,0,0-.05-.42,1.72,1.72,0,0,0-.72-.52l.09-.23,2.69,1.1-.09.23a1.61,1.61,0,0,0-.8,0,4.37,4.37,0,0,0-1.21.94l-5.87,5.8-.22-.09-.07-8.31a3.49,3.49,0,0,0-.2-1.38,1.41,1.41,0,0,0-.69-.62l.09-.23,3.37,1.37-.1.24a1.39,1.39,0,0,0-.76-.12.48.48,0,0,0-.32.28,2.83,2.83,0,0,0-.11,1Zm0,.54,0,4,2.89-2.84Z"/><path class="cls-13" d="M314,82.82l5.59-13.71c1.44-3.52.39-7.28-2.34-8.4L234.61,27c-2.73-1.12-6.11.84-7.55,4.36L182.81,139.77Z"/><path class="cls-5" d="M235.72,144.07l3.85.22.76-1.53a2.4,2.4,0,0,0,.3-.85.48.48,0,0,0-.19-.41,1.93,1.93,0,0,0-.92-.28V141l3.13.18v.27a1.74,1.74,0,0,0-.83.24,4.65,4.65,0,0,0-.91,1.38l-4,8-.26,0-3-8.47a3.82,3.82,0,0,0-.68-1.33,1.48,1.48,0,0,0-.93-.39v-.27l3.93.22,0,.27a1.51,1.51,0,0,0-.81.15.52.52,0,0,0-.24.4,3.13,3.13,0,0,0,.24,1Zm.17.56,1.46,4.11,2-3.92Z"/><polygon class="cls-14" points="462.64 257.68 233.19 257.1 236.96 248.13 464.87 248.13 462.64 257.68"/><line class="cls-15" x1="463.83" y1="256.49" x2="234.38" y2="255.92"/><g class="cls-4"><path class="cls-5" d="M140.69,148.49l1.86-1.48-.27-1a1.38,1.38,0,0,0-.22-.51.29.29,0,0,0-.26-.11,1.12,1.12,0,0,0-.53.25l-.11-.13,1.52-1.21.1.13a1.08,1.08,0,0,0-.28.45,2.77,2.77,0,0,0,.15,1l1.46,5.31-.12.1-4.86-2.67a2.4,2.4,0,0,0-.87-.33,1,1,0,0,0-.59.2l-.1-.13,1.9-1.51.1.13a.89.89,0,0,0-.31.41.26.26,0,0,0,.06.27,1.6,1.6,0,0,0,.53.38Zm.31.19,2.36,1.29-.71-2.61Z"/></g><polygon class="cls-6" points="139.35 140.59 139.35 144.96 135.09 143.98 135.09 139.62 139.35 140.59"/><path class="cls-16" d="M444.5,137l-3.63,13.51a27.17,27.17,0,0,0-5.2-5.24c-7.28-5.56-17.9-8.27-32.45-8.27H357.41L344,186.88l-7.58-50.45H293.68l-31.91,46.48L274.09,137H224l-8.18,30.13h-4.5L219.47,137H169.31l-3.57,13.27a26.91,26.91,0,0,0-5-5c-7.27-5.56-17.89-8.27-32.45-8.27H82.45L53.92,243.28H114c11,0,20.35-1.51,28-4.5l-1.21,4.5h50.15l8.17-30.62h4.53l-8.18,30.62h81.45l7.44-11.47h15.05l1.46,11.47h88.1c11.12,0,20.58-1.55,28.27-4.61L416,243.28H466.1L494.64,137Z"/><path class="cls-17" d="M140.83,190c13-3.42,20-12.08,20-22.45s-6.34-20.13-32.57-20.13H90.45L67.51,232.85H114c29.28,0,40.74-11.59,40.74-26C154.73,198.09,148.88,192.11,140.83,190Zm-26,21.22H101.06l3.42-12.69H116.8c6.1,0,9.14,1.71,9.14,5.37C125.94,208.21,121.8,211.26,114.84,211.26ZM122.41,181H109.23l3.17-12h11.84c6.1,0,8.78,1.47,8.78,5S129.73,181,122.41,181Z"/><polygon class="cls-18" points="231.95 147.46 223.78 177.59 197.67 177.59 205.84 147.46 177.3 147.46 154.37 232.85 182.91 232.85 191.09 202.23 217.19 202.23 209.02 232.85 237.56 232.85 260.49 147.46 231.95 147.46"/><path class="cls-19" d="M299.16,146.85l-59,86h31.11l7.44-11.47h29.89L310,232.85h30.37l-12.93-86Zm-7.8,54.29,13.29-20.74L307,201.14Z"/><path class="cls-20" d="M415.78,190c13.05-3.42,20-12.08,20-22.45s-6.35-20.13-32.57-20.13H365.4l-22.93,85.39h46.47c29.28,0,40.75-11.59,40.75-26C429.69,198.09,423.83,192.11,415.78,190Zm-26,21.22H376l3.42-12.69h12.32c6.1,0,9.15,1.71,9.15,5.37C400.9,208.21,396.75,211.26,389.8,211.26ZM397.36,181H384.19l3.17-12h11.83c6.1,0,8.78,1.47,8.78,5S404.68,181,397.36,181Z"/><polygon class="cls-21" points="452.5 147.46 429.57 232.85 458.11 232.85 481.04 147.46 452.5 147.46"/><path class="cls-22" d="M405.09,126.92l7-8.33c4.17,3.49,8.45,5.16,12.3,5.16,1.57,0,2.66-.58,2.66-1.62s-.68-1.51-6-3.49c-6.78-2.5-10-4.9-10-10.27,0-7,6.46-12.77,16.42-12.77a25.1,25.1,0,0,1,16.26,5.47l-7,8.34a17.59,17.59,0,0,0-10.53-4.06c-1.57,0-2.66.41-2.66,1.46s.78,1.3,5.84,3.18c6.2,2.29,10.16,4.89,10.16,10.47,0,7.35-6,13.08-16.52,13.08A26.61,26.61,0,0,1,405.09,126.92Z"/><path class="cls-23" d="M449.08,96.33h12.19l-9.8,36.48H439.28Z"/><path class="cls-24" d="M465.34,96.33h12.19l-7,26.06h16.63l-2.82,10.42H455.54Z"/></g></g></svg>